<svg width="16" height="16" viewBox="0 0 16 16" fill="none" xmlns="http://www.w3.org/2000/svg">
<g id="mail-02 - 24px">
<path id="Vector" d="M4.66669 5.66669L6.62803 6.82629C7.77149 7.50235 8.22855 7.50235 9.37202 6.82629L11.3334 5.66669" stroke="#616161" stroke-linecap="round" stroke-linejoin="round"/>
<path id="Vector_2" d="M1.34382 8.98373C1.38741 11.0274 1.4092 12.0493 2.16328 12.8062C2.91737 13.5632 3.96687 13.5895 6.06587 13.6423C7.35952 13.6748 8.64045 13.6748 9.93412 13.6423C12.0331 13.5895 13.0826 13.5632 13.8366 12.8062C14.5908 12.0493 14.6126 11.0274 14.6561 8.98373C14.6702 8.3266 14.6702 7.67333 14.6561 7.01627C14.6126 4.97255 14.5908 3.95071 13.8366 3.19375C13.0826 2.4368 12.0331 2.41043 9.93412 2.35769C8.64045 2.32519 7.35952 2.32519 6.06586 2.35769C3.96687 2.41042 2.91737 2.43679 2.16328 3.19375C1.4092 3.9507 1.3874 4.97255 1.34382 7.0162C1.32981 7.67333 1.32981 8.3266 1.34382 8.98373Z" stroke="#616161" stroke-linejoin="round"/>
</g>
</svg>
