<svg width="51" height="51" viewBox="0 0 51 51" fill="none" xmlns="http://www.w3.org/2000/svg">
<g id="mdi:love">
<path id="Vector" d="M42.5001 36.125C43.7184 36.125 44.7455 36.55 45.5813 37.4C46.4172 38.25 46.828 39.2417 46.8138 40.375L29.7501 46.75L14.8751 42.5V23.375H19.0188L34.4676 29.0912C35.5726 29.5304 36.1251 30.3238 36.1251 31.4713C36.1251 32.1371 35.8842 32.7179 35.4026 33.2138C34.9209 33.7096 34.3117 33.9717 33.5751 34H27.6251L23.9063 32.5763L23.2051 34.5738L27.6251 36.125H42.5001ZM34.0001 6.86375C35.5017 5.12125 37.4142 4.25 39.7376 4.25C41.6642 4.25 43.2934 4.95833 44.6251 6.375C45.9567 7.79167 46.6651 9.42083 46.7501 11.2625C46.7501 12.7217 46.0417 14.4642 44.6251 16.49C43.2084 18.5158 41.813 20.2087 40.4388 21.5687C39.0647 22.9287 36.9184 24.9475 34.0001 27.625C31.0534 24.9475 28.8859 22.9287 27.4976 21.5687C26.1092 20.2087 24.7138 18.5158 23.3113 16.49C21.9088 14.4642 21.2217 12.7217 21.2501 11.2625C21.2501 9.33583 21.9371 7.70667 23.3113 6.375C24.6855 5.04333 26.343 4.335 28.2838 4.25C30.5505 4.25 32.4559 5.12125 34.0001 6.86375ZM2.09106 23.375H10.6251V46.75H2.09106V23.375Z" fill="black"/>
</g>
</svg>
