<svg width="14" height="14" viewBox="0 0 14 14" fill="none" xmlns="http://www.w3.org/2000/svg">
<g id="Group">
<path id="Vector" d="M6.99977 1.26129C8.86871 1.26129 9.09004 1.26829 9.82835 1.30196C10.2723 1.30739 10.7119 1.3889 11.1283 1.54295C11.4302 1.65939 11.7045 1.83777 11.9333 2.0666C12.1621 2.29543 12.3405 2.56964 12.4569 2.87157C12.611 3.28793 12.6925 3.72762 12.6979 4.17153C12.7313 4.90984 12.7386 5.13117 12.7386 7.0001C12.7386 8.86904 12.7316 9.09037 12.6979 9.82868C12.6925 10.2726 12.611 10.7123 12.4569 11.1286C12.3405 11.4306 12.1621 11.7048 11.9333 11.9336C11.7045 12.1624 11.4302 12.3408 11.1283 12.4573C10.7119 12.6113 10.2723 12.6928 9.82835 12.6983C9.09037 12.7316 8.86905 12.7389 6.99977 12.7389C5.1305 12.7389 4.90917 12.7319 4.1712 12.6983C3.72729 12.6928 3.2876 12.6113 2.87124 12.4573C2.5693 12.3408 2.29509 12.1624 2.06627 11.9336C1.83744 11.7048 1.65906 11.4306 1.54262 11.1286C1.38857 10.7123 1.30706 10.2726 1.30162 9.82868C1.26829 9.09037 1.26096 8.86904 1.26096 7.0001C1.26096 5.13117 1.26796 4.90984 1.30162 4.17153C1.30706 3.72762 1.38857 3.28793 1.54262 2.87157C1.65906 2.56964 1.83744 2.29543 2.06627 2.0666C2.29509 1.83777 2.5693 1.65939 2.87124 1.54295C3.2876 1.3889 3.72729 1.30739 4.1712 1.30196C4.90951 1.26863 5.13083 1.26129 6.99977 1.26129ZM6.99977 0C5.09983 0 4.86051 0.00799972 4.11387 0.0419986C3.5329 0.0535542 2.9581 0.163555 2.41392 0.367321C1.9471 0.543204 1.52428 0.818828 1.17496 1.17496C0.818507 1.52441 0.542647 1.94747 0.366655 2.41459C0.162888 2.95877 0.0528876 3.53357 0.041332 4.11453C0.00799976 4.86051 0 5.09983 0 6.99977C0 8.89971 0.00799972 9.13904 0.0419986 9.88568C0.0535542 10.4666 0.163555 11.0414 0.367321 11.5856C0.543118 12.0527 0.818747 12.4757 1.17496 12.8252C1.52447 13.1815 1.94753 13.4571 2.41459 13.6329C2.95877 13.8367 3.53357 13.9467 4.11453 13.9582C4.86118 13.9915 5.0995 14.0002 7.00044 14.0002C8.90138 14.0002 9.1397 13.9922 9.88635 13.9582C10.4673 13.9467 11.0421 13.8367 11.5863 13.6329C12.0511 13.4527 12.4733 13.1775 12.8257 12.8249C13.1781 12.4722 13.453 12.0499 13.6329 11.585C13.8367 11.0408 13.9467 10.466 13.9582 9.88501C13.9915 9.13903 13.9995 8.89971 13.9995 6.99977C13.9995 5.09983 13.9915 4.86051 13.9575 4.11387C13.946 3.5329 13.836 2.9581 13.6322 2.41392C13.4564 1.94686 13.1808 1.52381 12.8246 1.17429C12.4751 0.81808 12.052 0.542452 11.585 0.366655C11.0408 0.162888 10.466 0.0528876 9.88501 0.041332C9.13904 0.00799976 8.89971 0 6.99977 0Z" fill="white"/>
<path id="Vector_2" d="M7.0002 3.40666C6.28927 3.40666 5.5943 3.61748 5.00318 4.01245C4.41206 4.40743 3.95133 4.96882 3.67927 5.62563C3.40721 6.28245 3.33602 7.0052 3.47472 7.70247C3.61342 8.39975 3.95577 9.04023 4.45847 9.54294C4.96118 10.0456 5.60167 10.388 6.29894 10.5267C6.99621 10.6654 7.71896 10.5942 8.37578 10.3221C9.03259 10.0501 9.59399 9.58935 9.98896 8.99823C10.3839 8.40711 10.5948 7.71214 10.5948 7.00121C10.5948 6.04788 10.216 5.13359 9.54193 4.45948C8.86782 3.78537 7.95354 3.40666 7.0002 3.40666ZM7.0002 9.33447C6.53873 9.33447 6.08762 9.19762 5.70391 8.94124C5.32021 8.68486 5.02115 8.32045 4.84455 7.89411C4.66795 7.46776 4.62175 6.99862 4.71178 6.54601C4.80181 6.09341 5.02403 5.67766 5.35034 5.35135C5.67665 5.02504 6.0924 4.80281 6.54501 4.71278C6.99761 4.62276 7.46675 4.66896 7.8931 4.84556C8.31945 5.02216 8.68385 5.32122 8.94023 5.70492C9.19662 6.08862 9.33346 6.53973 9.33346 7.00121C9.33346 7.62003 9.08763 8.2135 8.65006 8.65107C8.21249 9.08864 7.61902 9.33447 7.0002 9.33447Z" fill="white"/>
<path id="Vector_3" d="M10.7365 4.10376C11.2004 4.10376 11.5765 3.72769 11.5765 3.26379C11.5765 2.79988 11.2004 2.42381 10.7365 2.42381C10.2726 2.42381 9.89657 2.79988 9.89657 3.26379C9.89657 3.72769 10.2726 4.10376 10.7365 4.10376Z" fill="white"/>
</g>
</svg>
